M48
;FILE_FORMAT=2:4
INCH
;TYPE=PLATED
T01C0.013
T03C0.030
T04C0.035
T05C0.038
T06C0.047
T07C0.059
T09C0.087
;TYPE=NON_PLATED
T02C0.030
T08C0.070
T10C0.184
%
T01
X+233500Y+270625
X+233655Y+279465
X+233745Y+281475
Y+279915
X+235860Y+271290
X+236700Y+272625
X+236730Y+273660
X+234660Y+274860
X+234345Y+273570
X+235425Y+279465
X+235813Y+281250
X+238125Y+269055
X+239312Y+276750
X+239063Y+277625
X+237450Y+279870
X+240500Y+267750
X+241755Y+270285
X+241035Y+281040
X+240330Y+280250
X+245000Y+265260
X+243250Y+271062
X+243375Y+274937
X+244500Y+276885
X+245313Y+284750
X+248507Y+265713
X+247506Y+265720
X+246505
X+246615Y+267960
X+246435Y+269280
X+247395Y+271740
X+247845Y+270735
X+246525Y+271080
X+246555Y+270510
X+247665Y+274920
X+247995Y+274635
X+247395Y+274380
X+246540Y+273495
X+246450Y+274665
X+246855Y+278310
X+247980Y+281625
X+248445Y+283755
X+246660Y+283500
X+251510Y+265720
X+250502
X+249501Y+265727
X+249465Y+268995
X+251265Y+269010
X+250005Y+271830
X+249435Y+270945
X+251325Y+271335
X+251310Y+277170
X+251250Y+277620
X+250755Y+277590
X+250740Y+278010
X+250710Y+278460
X+250290Y+278490
X+250890Y+281130
X+249480Y+279315
X+250920Y+282930
X+249570Y+282645
X+249945Y+284070
X+250815Y+285285
X+253505Y+265713
X+252490Y+265720
X+254499Y+265713
X+253035Y+268995
X+252555Y+272235
X+254040Y+274080
X+252885Y+273555
X+252420Y+273465
X+252630Y+276555
X+252960Y+276870
X+253395Y+276540
X+254595Y+278595
X+253938Y+277000
X+254715Y+281130
X+252810Y+280545
X+255500Y+265720
X+256508Y+265706
X+257640Y+266520
X+257509Y+265706
X+256545Y+268995
X+256230Y+278715
X+256710Y+277785
X+257715Y+278550
X+255585Y+276675
X+256815Y+281130
X+257415Y+282645
X+260498Y+265706
X+259497Y+265720
X+259305Y+269220
X+259110Y+272340
Y+270360
X+259410Y+273420
X+259020Y+278745
X+259688Y+277688
X+259545Y+278415
X+260430Y+279555
X+263494Y+265713
X+262507Y+265699
X+261506Y+265706
X+261438Y+269563
X+261495Y+277575
X+263010Y+280005
X+262410Y+284550
X+261885Y+283950
X+261315Y+283695
X+263100Y+282660
X+265785Y+268740
X+265095Y+271935
X+265575Y+272730
X+265665Y+273285
X+266670Y+273735
X+265680Y+273765
X+266145Y+273780
X+266670Y+278415
X+265980Y+277380
X+266295Y+278655
X+265590Y+278430
X+265080Y+276435
X+265215Y+279600
X+265562Y+280375
X+264450Y+285330
X+267300Y+267585
X+268290Y+268140
X+267945Y+272700
X+268440Y+272745
X+267270Y+272535
X+267630Y+270765
X+268335Y+273435
X+268200Y+274020
X+268035Y+274650
X+268665Y+274500
X+269235Y+274440
X+269100Y+275010
X+269700Y+274995
X+267465Y+278400
X+268440
X+269130Y+277905
X+269715Y+276435
X+269640Y+280755
X+267585Y+280650
X+271200Y+280755
X+233340Y+281775
X+236563Y+275875
X+238605Y+273075
X+240705Y+272910
X+244500Y+272835
X+245565Y+276120
X+245490Y+267030
X+247980Y+269910
X+246630Y+278910
X+250395Y+269985
X+250140Y+278955
X+249705Y+278925
X+249600Y+282090
X+250545Y+281820
X+253770Y+270165
X+252450Y+272775
X+254205Y+281820
X+254010Y+279015
X+255630Y+270120
X+256080Y+281820
X+256200Y+279195
X+259763Y+270152
X+263415Y+273000
X+261885Y+272970
X+263490Y+267090
X+266375Y+266875
X+265688Y+269937
X+265155Y+282150
X+267625Y+269937
X+268050Y+278775
X+268845Y+278760
X+270390
X+240150Y+268875
X+237250Y+267750
X+237045Y+279600
X+246000Y+268740
X+252180Y+269595
X+252060Y+272235
X+246000Y+273870
X+251760Y+277140
X+252195Y+276975
X+246030Y+278410
X+252225Y+281130
X+248985Y+283260
X+255135Y+268995
X+258030Y+269010
X+254775Y+269580
X+257985Y+270990
X+254775Y+270975
X+261000Y+272625
X+261015Y+273870
X+257985Y+274065
X+254880Y+274500
Y+273300
X+255180Y+278445
X+257880Y+277950
X+258225Y+278490
X+254880Y+276525
X+257985Y+281130
X+255195Y+280545
X+258210Y+282480
X+266925Y+273375
X+269760Y+278400
X+269775Y+284010
X+239805Y+273135
X+234135Y+281775
X+237105Y+279120
X+236850Y+281775
X+251970Y+273105
X+249000Y+281850
X+251835Y+281820
X+255120Y+278940
X+258210Y+278925
X+267075Y+272955
Y+278760
T02
X+245859Y+285028
X+263891
T03
X+270755Y+269385
X+270750Y+268140
T04
X+245445Y+269163
Y+266367
X+270750Y+275688
X+270735Y+276957
Y+279753
X+260922Y+268350
X+263718
X+262182Y+269310
X+264978
X+266750Y+281625
X+267942Y+281610
X+270738
X+241767Y+277875
X+244563
T05
X+241000Y+276250
Y+275250
X+244375Y+284625
Y+283625
X+243375
Y+284625
X+242375Y+283625
Y+284625
X+241375Y+283625
Y+284625
X+240375
Y+283625
X+269375Y+284500
Y+283500
X+268375
Y+284500
X+267375Y+283500
Y+284500
X+266375Y+283500
Y+284500
X+265375
Y+283500
T06
X+233656Y+284500
X+237594
X+233656Y+285484
X+237594
X+235625Y+282531
T07
X+234641Y+282531
X+237594
X+236609
X+233656
X+235625Y+284500
T08
X+247277Y+277804
X+262473
T09
X+247277Y+276623
X+262473
T10
X+243000Y+269221
X+265000Y+267174
T00
M30
